<svg xmlns="http://www.w3.org/2000/svg" xmlns:xlink="http://www.w3.org/1999/xlink" width="276pt" height="310pt" viewBox="0.00 0.00 276.25 309.50">
<g id="graph0" class="graph" transform="scale(1 1) rotate(0) translate(4 305.5)">
<polygon fill="white" stroke="none" points="-4,4 -4,-305.5 272.25,-305.5 272.25,4 -4,4"/>
<!-- 0 -->
<g id="node1" class="node">
<title>0</title>
<polygon fill="none" stroke="black" points="268.25,-213 148,-213 148,-177 268.25,-177 268.25,-213"/>
<text text-anchor="middle" x="208.12" y="-189.95" font-family="Times,serif" font-size="14.00">get_available_gpus</text>
</g>
<!-- 1 -->
<g id="node2" class="node">
<title>1</title>
<polygon fill="none" stroke="black" points="203.25,-124.5 83,-124.5 83,-88.5 203.25,-88.5 203.25,-124.5"/>
<text text-anchor="middle" x="143.12" y="-101.45" font-family="Times,serif" font-size="14.00">get_available_gpus</text>
</g>
<!-- 0&#45;&gt;1 -->
<g id="edge1" class="edge">
<title>0-&gt;1</title>
<path fill="none" stroke="black" d="M195.28,-176.91C186.08,-164.67 173.52,-147.95 163.03,-133.99"/>
<polygon fill="black" stroke="black" points="165.88,-131.95 157.07,-126.06 160.28,-136.16 165.88,-131.95"/>
<text text-anchor="middle" x="187.5" y="-145.7" font-family="Times,serif" font-size="14.00">lst</text>
</g>
<!-- 2 -->
<g id="node3" class="node">
<title>2</title>
<polygon fill="none" stroke="black" points="120.25,-36 0,-36 0,0 120.25,0 120.25,-36"/>
<text text-anchor="middle" x="60.12" y="-12.95" font-family="Times,serif" font-size="14.00">get_available_gpus</text>
</g>
<!-- 1&#45;&gt;2 -->
<g id="edge2" class="edge">
<title>1-&gt;2</title>
<path fill="none" stroke="black" d="M126.73,-88.41C114.64,-75.82 98.01,-58.48 84.39,-44.29"/>
<polygon fill="black" stroke="black" points="87.27,-42.23 77.82,-37.44 82.22,-47.08 87.27,-42.23"/>
<text text-anchor="middle" x="115.5" y="-57.2" font-family="Times,serif" font-size="14.00">lst</text>
</g>
<!-- 3 -->
<g id="node4" class="node">
<title>3</title>
<ellipse fill="none" stroke="black" cx="208.12" cy="-283.5" rx="18" ry="18"/>
<text text-anchor="middle" x="208.12" y="-278.45" font-family="Times,serif" font-size="14.00">1</text>
</g>
<!-- 3&#45;&gt;0 -->
<g id="edge3" class="edge">
<title>3-&gt;0</title>
<path fill="none" stroke="black" d="M208.12,-265.41C208.12,-253.76 208.12,-238.05 208.12,-224.52"/>
<polygon fill="black" stroke="black" points="211.63,-224.86 208.13,-214.86 204.63,-224.86 211.63,-224.86"/>
<text text-anchor="middle" x="210" y="-234.2" font-family="Times,serif" font-size="14.00">i</text>
</g>
<!-- 4 -->
<g id="node5" class="node">
<title>4</title>
<ellipse fill="none" stroke="black" cx="112.12" cy="-195" rx="18" ry="18"/>
<text text-anchor="middle" x="112.12" y="-189.95" font-family="Times,serif" font-size="14.00">2</text>
</g>
<!-- 4&#45;&gt;1 -->
<g id="edge4" class="edge">
<title>4-&gt;1</title>
<path fill="none" stroke="black" d="M117.96,-177.73C122.22,-165.84 128.11,-149.41 133.11,-135.43"/>
<polygon fill="black" stroke="black" points="136.31,-136.9 136.38,-126.31 129.72,-134.54 136.31,-136.9"/>
<text text-anchor="middle" x="132" y="-145.7" font-family="Times,serif" font-size="14.00">i</text>
</g>
<!-- 5 -->
<g id="node6" class="node">
<title>5</title>
<ellipse fill="none" stroke="black" cx="47.12" cy="-106.5" rx="18" ry="18"/>
<text text-anchor="middle" x="47.12" y="-101.45" font-family="Times,serif" font-size="14.00">3</text>
</g>
<!-- 5&#45;&gt;2 -->
<g id="edge5" class="edge">
<title>5-&gt;2</title>
<path fill="none" stroke="black" d="M49.69,-88.41C51.44,-76.76 53.81,-61.05 55.84,-47.52"/>
<polygon fill="black" stroke="black" points="59.27,-48.26 57.29,-37.85 52.35,-47.22 59.27,-48.26"/>
<text text-anchor="middle" x="57" y="-57.2" font-family="Times,serif" font-size="14.00">i</text>
</g>
</g>
</svg>