<svg xmlns="http://www.w3.org/2000/svg" xmlns:xlink="http://www.w3.org/1999/xlink" width="290pt" height="310pt" viewBox="0.00 0.00 290.00 309.50">
<g id="graph0" class="graph" transform="scale(1 1) rotate(0) translate(4 305.5)">
<polygon fill="white" stroke="none" points="-4,4 -4,-305.5 286,-305.5 286,4 -4,4"/>
<!-- 0 -->
<g id="node1" class="node">
<title>0</title>
<polygon fill="none" stroke="black" points="282,-213 155,-213 155,-177 282,-177 282,-213"/>
<text text-anchor="middle" x="218.5" y="-189.95" font-family="Times,serif" font-size="14.00">get_available_GPUs</text>
</g>
<!-- 1 -->
<g id="node2" class="node">
<title>1</title>
<polygon fill="none" stroke="black" points="214,-124.5 87,-124.5 87,-88.5 214,-88.5 214,-124.5"/>
<text text-anchor="middle" x="150.5" y="-101.45" font-family="Times,serif" font-size="14.00">get_available_GPUs</text>
</g>
<!-- 0&#45;&gt;1 -->
<g id="edge1" class="edge">
<title>0-&gt;1</title>
<path fill="none" stroke="black" d="M205.07,-176.91C195.35,-164.55 182.05,-147.63 171.01,-133.58"/>
<polygon fill="black" stroke="black" points="174.01,-131.74 165.07,-126.04 168.5,-136.06 174.01,-131.74"/>
<text text-anchor="middle" x="196.88" y="-145.7" font-family="Times,serif" font-size="14.00">lst</text>
</g>
<!-- 2 -->
<g id="node3" class="node">
<title>2</title>
<polygon fill="none" stroke="black" points="127,-36 0,-36 0,0 127,0 127,-36"/>
<text text-anchor="middle" x="63.5" y="-12.95" font-family="Times,serif" font-size="14.00">get_available_GPUs</text>
</g>
<!-- 1&#45;&gt;2 -->
<g id="edge2" class="edge">
<title>1-&gt;2</title>
<path fill="none" stroke="black" d="M133.31,-88.41C120.64,-75.82 103.21,-58.48 88.93,-44.29"/>
<polygon fill="black" stroke="black" points="91.58,-41.99 82.02,-37.42 86.65,-46.95 91.58,-41.99"/>
<text text-anchor="middle" x="121.88" y="-57.2" font-family="Times,serif" font-size="14.00">lst</text>
</g>
<!-- 3 -->
<g id="node4" class="node">
<title>3</title>
<ellipse fill="none" stroke="black" cx="218.5" cy="-283.5" rx="18" ry="18"/>
<text text-anchor="middle" x="218.5" y="-278.45" font-family="Times,serif" font-size="14.00">1</text>
</g>
<!-- 3&#45;&gt;0 -->
<g id="edge3" class="edge">
<title>3-&gt;0</title>
<path fill="none" stroke="black" d="M218.5,-265.41C218.5,-253.76 218.5,-238.05 218.5,-224.52"/>
<polygon fill="black" stroke="black" points="222,-224.86 218.5,-214.86 215,-224.86 222,-224.86"/>
<text text-anchor="middle" x="220.38" y="-234.2" font-family="Times,serif" font-size="14.00">i</text>
</g>
<!-- 4 -->
<g id="node5" class="node">
<title>4</title>
<ellipse fill="none" stroke="black" cx="118.5" cy="-195" rx="18" ry="18"/>
<text text-anchor="middle" x="118.5" y="-189.95" font-family="Times,serif" font-size="14.00">2</text>
</g>
<!-- 4&#45;&gt;1 -->
<g id="edge4" class="edge">
<title>4-&gt;1</title>
<path fill="none" stroke="black" d="M124.52,-177.73C128.92,-165.84 135,-149.41 140.17,-135.43"/>
<polygon fill="black" stroke="black" points="143.36,-136.9 143.54,-126.3 136.79,-134.47 143.36,-136.9"/>
<text text-anchor="middle" x="138.38" y="-145.7" font-family="Times,serif" font-size="14.00">i</text>
</g>
<!-- 5 -->
<g id="node6" class="node">
<title>5</title>
<ellipse fill="none" stroke="black" cx="50.5" cy="-106.5" rx="18" ry="18"/>
<text text-anchor="middle" x="50.5" y="-101.45" font-family="Times,serif" font-size="14.00">3</text>
</g>
<!-- 5&#45;&gt;2 -->
<g id="edge5" class="edge">
<title>5-&gt;2</title>
<path fill="none" stroke="black" d="M53.07,-88.41C54.82,-76.76 57.18,-61.05 59.21,-47.52"/>
<polygon fill="black" stroke="black" points="62.64,-48.26 60.67,-37.85 55.72,-47.22 62.64,-48.26"/>
<text text-anchor="middle" x="60.38" y="-57.2" font-family="Times,serif" font-size="14.00">i</text>
</g>
</g>
</svg>